# xmcd
#
# Track frame offsets: 
#        150
#        7391
#        28912
#        46228
#        60378
#        75440
#        92148
#        108177
#        126215
#        145276
#        161389
#        177033
#        193383
#        208823
#        224021
#        238926
#        253112
#        257348
#
# Disc length: 3716 seconds
#
# Revision: 2
# Processed by: cddbd v1.5.2PL0 Copyright (c) Steve Scherf et al.
# Submitted via: ExactAudioCopy v1.3
#
DISCID=060e8212
DTITLE=ST1M - Я-Рэп
DYEAR=2007
DGENRE=Hip-Hop
TTITLE0=Интро
TTITLE1=Я-Рэп (feat. Серега)
TTITLE2=Изо Всей Силы
TTITLE3=Жми На Play
TTITLE4=Ты
TTITLE5=Это Качает
TTITLE6=Рэп На Русском
TTITLE7=Будь Уверен (feat. Макс Лоренс and Серега)
TTITLE8=Во Даю (feat. Серега and ST)
TTITLE9=Милая (feat. Макс Лоренс)
TTITLE10=Война
TTITLE11=No (feat. Макс Лоренс)
TTITLE12=Изо Всей Силы (Remix)
TTITLE13=Попробуй (feat. Серега)
TTITLE14=Позвони Мне
TTITLE15=Айда За Мной
TTITLE16=Аутро
TTITLE17=Я-Рэп (Remix) (Untitled Hidden Track)
EXTD=
EXTT0=
EXTT1=
EXTT2=
EXTT3=
EXTT4=
EXTT5=
EXTT6=
EXTT7=
EXTT8=
EXTT9=
EXTT10=
EXTT11=
EXTT12=
EXTT13=
EXTT14=
EXTT15=
EXTT16=
EXTT17=
PLAYORDER=
